/* XPM */
static char *mb8coin32_png[] = {
/* columns rows colors chars-per-pixel */
"32 32 195 2 ",
"   c None",
".  c #754919",
"X  c #79511D",
"o  c #7F591F",
"O  c #7C5626",
"+  c #7E5820",
"@  c #6E5130",
"#  c #785C34",
"$  c #7E6133",
"%  c #7E643B",
"&  c #71516E",
"*  c #835800",
"=  c #835C23",
"-  c #855F2A",
";  c #89642D",
":  c #8C692E",
">  c #926E2E",
",  c #97712E",
"<  c #9B762F",
"1  c #8D6B33",
"2  c #85693B",
"3  c #876838",
"4  c #926E33",
"5  c #8D713D",
"6  c #957235",
"7  c #95753B",
"8  c #9D7C3C",
"9  c #9A7736",
"0  c #8C7342",
"q  c #947A47",
"w  c #9E7D43",
"e  c #947C4A",
"r  c #967744",
"t  c #8A6B54",
"y  c #8A7777",
"u  c #B4891C",
"i  c #AE842B",
"p  c #AB8C3F",
"a  c #AE8635",
"s  c #B28B34",
"d  c #9B8145",
"f  c #9B824B",
"g  c #9B835C",
"h  c #A28444",
"j  c #A68945",
"k  c #AB8C45",
"l  c #A1874D",
"z  c #A58B4C",
"x  c #AB8D4A",
"c  c #AD914A",
"v  c #AD9046",
"b  c #B39245",
"n  c #B1944C",
"m  c #B69A4F",
"M  c #BB9B4A",
"N  c #B89847",
"B  c #A28651",
"V  c #A48C52",
"C  c #A88E59",
"Z  c #AC9255",
"A  c #A69159",
"S  c #AC945B",
"D  c #B69355",
"F  c #B59B54",
"G  c #BA9D52",
"H  c #B59B5C",
"J  c #BB9E5D",
"K  c #B1955E",
"L  c #BEA355",
"P  c #B5A05E",
"I  c #BCA45C",
"U  c #BFA85E",
"Y  c #9F856F",
"T  c #9B8674",
"R  c #AD9663",
"E  c #B59A62",
"W  c #AD9673",
"Q  c #AD9A76",
"!  c #B6A264",
"~  c #B9A477",
"^  c #CEA447",
"/  c #D2A842",
"(  c #D8B24C",
")  c #C5A753",
"_  c #C1A75D",
"`  c #C3AA5B",
"'  c #CCAC5B",
"]  c #CDA854",
"[  c #CAB05A",
"{  c #D7B356",
"}  c #C4AD63",
"|  c #C9AE62",
" . c #C5AA6A",
".. c #C0A360",
"X. c #C4B164",
"o. c #CBB462",
"O. c #CEB965",
"+. c #C4B36B",
"@. c #CAB56B",
"#. c #C7B86C",
"$. c #CBBB6D",
"%. c #D2BA65",
"&. c #D4BC6B",
"*. c #D3B366",
"=. c #C2AC71",
"-. c #C5B173",
";. c #CBB473",
":. c #CBBE75",
">. c #C7B67B",
",. c #CAB57D",
"<. c #D2BB73",
"1. c #DFC35D",
"2. c #E4C759",
"3. c #DEC665",
"4. c #D5C16B",
"5. c #DDC36B",
"6. c #CEC475",
"7. c #CDC37B",
"8. c #D2C274",
"9. c #D5CA74",
"0. c #DBCB74",
"q. c #DCCD7C",
"w. c #DAC579",
"e. c #E4CB6A",
"r. c #E7D26D",
"t. c #F0D468",
"y. c #E2CD75",
"u. c #E5D571",
"i. c #E2D27C",
"p. c #EAD579",
"a. c #EBDA7E",
"s. c #F6DE76",
"d. c #EAE47B",
"f. c #000090",
"g. c #767087",
"h. c #837683",
"j. c #9F9182",
"k. c #9D9F9F",
"l. c #A59683",
"z. c #BBB297",
"x. c #B7B8AC",
"c. c #C9B788",
"v. c #CABD94",
"b. c #CAC085",
"n. c #D5CA86",
"m. c #DDCB84",
"M. c #D4CD8D",
"N. c #DCCA8A",
"B. c #D6C286",
"V. c #DAD284",
"C. c #DDDB83",
"Z. c #DBD38D",
"A. c #D6D189",
"S. c #C7C598",
"D. c #DBCE94",
"F. c #DEDC9F",
"G. c #E0CB8B",
"H. c #E4D483",
"J. c #EED681",
"K. c #E4D986",
"L. c #EADD82",
"P. c #E3D38B",
"I. c #EADE8B",
"U. c #E4DB8A",
"Y. c #E2CF92",
"T. c #E3D495",
"R. c #EADF93",
"E. c #E6D69B",
"W. c #E6DA9D",
"Q. c #E8DA9A",
"!. c #E4D893",
"~. c #E6E38F",
"^. c #EBE28D",
"/. c #ECE587",
"(. c #F3E487",
"). c #ECE391",
"_. c #EDEA9C",
"`. c #E9E498",
"'. c #F2EB94",
"]. c #F8EB9A",
"[. c #F5F19A",
"{. c #DBDAA8",
"}. c #EDE4A3",
"|. c #EFE8A4",
" X c #EBE5AA",
".X c #EDEBAC",
"XX c #E3E2A5",
"oX c #F4ECA5",
"OX c #F2EFAC",
"+X c #F8F0A7",
"@X c #FCFAAC",
"#X c #F9F7AB",
"$X c #EEECB2",
"%X c #F0EEB3",
"&X c #F2F2B8",
/* pixels */
"                                                                ",
"                                                                ",
"                      |.}.|.oX+X+XoXoX}.oX                      ",
"                P.N.P.n.<.$.@.o.@.o.@.:.n.P.N.D.                ",
"              ;.:._ L G H Z Z Z Z Z Z H G G L ;.;.              ",
"            E n v v l f f z z k x z j f f f m v x J             ",
"          K j n z 0 7 j v k k k k x k k j 1 0 f n z H           ",
"        Z j v e 2 : 8 j j k n n v n x j j 6 , 2 f x d D         ",
"      K w v e # : : 6 v _ | } #.$.X._ m j : 4 > # e v w Z       ",
"    -.H x z 0 8 8 8 n @.+. .<.~.~.D.B.,.L 9 8 8 8 5 V k K -.    ",
"    ;._ L A m L G G L C.i.&.G..X.X}.T.E.M.E m L ) G A _ L ;.    ",
"    J.%.+.} 5.&.e.$.C.'._.T.G..X%XQ.T.Q..XXXw.5.%.5.} +.%.J.    ",
"  ].(.0.:.y.p.p.y.9.(.'..XXXT.T.}.N.Q.}..X&XS.0.p.p.y.6.y.(.].  ",
"  ]./.q.7.L.L.L.&.5.i.}.^.K.n.N.T.B.T.}.&X{.k.b.a.K./.7.V.L.].  ",
"  @X).Z.n.'.^.K.o.s ( ).|.U.i./ 1 s ' 0.s.,.x.S.a.^.).V.Z.U.@X  ",
"  @XU.M.V.^.^.i._ a { e.g.j.t./ t T D.Q.i.e.F.F.i.~.).V.Z.U.@X  ",
"  '.9.7.6.i.i.0._ i *.N.h.l.G.] & f.W 2.t.P.[.V.0.i.i.6.7.9.'.  ",
"  C.4.U X.4.4.4.} s <. X|.|.E.] t y $.y.u.3./.C.4.4.4.` #.O.H.  ",
"  <.[ P P [ [ [ 7.a %.|. XT.T.' * u / 1.s.2.d.9.O._ [ P U ) &.  ",
"  } M m j M M ) 6.$.0.y.Y.E..Xc.Y Z D { &.$.u.O.) N M k m m }   ",
"  } b v d j v p _ 8.0.] N.%X$Xz.c.Q Q T T W } _ p v k d m b _   ",
"    x k d ; , , , h _ %.T.&X$Xv.~ c.>.;. .E 5 , , , ; d j x     ",
"    B 7 d $ o ; . v o.$.~.%X%XG.{ H.a.p.} ; = = ; o % j 7 B     ",
"      r h e @ X O 1 G _ :.n.n.| ' &.8.+.G . O O X @ 0 w r R     ",
"      Z r j q # O 4 7 j m _ _ _ U _ L v 7 - : = # e j 7 A       ",
"        Z l x e 2 7 k j j j Z v v x l j j 4 1 2 f v w Z         ",
"          J x n Z f f x k x c v x n n v j 5 e Z v z H           ",
"             .J m n Z V z z x v v x x V V Z G m L  .            ",
"              <.&.| _ L L P P E ! P L L L L [ &.<.              ",
"                  n.p.y.4.%.o.o.o.o.O.8.y.G.n.                  ",
"                      ).^.I.^.(.(.(.U.I.).                      ",
"                                                                "
};
