/* XPM */
static char *mb8coin64_png[] = {
/* columns rows colors chars-per-pixel */
"64 64 246 2 ",
"   c None",
".  c #5A390B",
"X  c #6D3E10",
"o  c #5F431D",
"O  c #6B4815",
"+  c #754C18",
"@  c #78541C",
"#  c #714A11",
"$  c #7B5423",
"%  c #795925",
"&  c #745D33",
"*  c #694F27",
"=  c #7A6337",
"-  c #7B612C",
";  c #7C6B43",
":  c #7E707C",
">  c #A87810",
",  c #825B25",
"<  c #835D29",
"1  c #815E33",
"2  c #8A642B",
"3  c #8D692D",
"4  c #866329",
"5  c #926B26",
"6  c #926C2C",
"7  c #96722A",
"8  c #8D6A32",
"9  c #866736",
"0  c #916D33",
"q  c #926E3A",
"w  c #957234",
"e  c #997534",
"r  c #967539",
"t  c #987639",
"y  c #9D7C3B",
"u  c #9B7B36",
"i  c #8E7234",
"p  c #A07E3D",
"a  c #A07B34",
"s  c #AA7E29",
"d  c #8A5F1F",
"f  c #8D7A4C",
"g  c #877448",
"h  c #9A7C42",
"j  c #9A7C4B",
"k  c #947947",
"l  c #8D7C52",
"z  c #8E704B",
"x  c #A17E41",
"c  c #8A777A",
"v  c #826E7C",
"b  c #B9871F",
"n  c #9C803E",
"m  c #B38425",
"M  c #A3823D",
"N  c #AA8639",
"B  c #B48B36",
"V  c #C8940E",
"C  c #C7972B",
"Z  c #CB9C34",
"A  c #C89A36",
"S  c #C6942E",
"D  c #D3A93B",
"F  c #9A844B",
"G  c #9A8345",
"H  c #9C8B5A",
"J  c #9A8754",
"K  c #A48543",
"L  c #A88642",
"P  c #A58945",
"I  c #A98B45",
"U  c #A3854C",
"Y  c #AB8E4A",
"T  c #A58B4A",
"R  c #AD934C",
"E  c #AE9046",
"W  c #B29142",
"Q  c #B3954C",
"!  c #B5994E",
"~  c #BB9D4C",
"^  c #BA9849",
"/  c #A48B54",
"(  c #A68C56",
")  c #AD9452",
"_  c #A2915D",
"`  c #AB925A",
"'  c #AC9854",
"]  c #B39654",
"[  c #B59B53",
"{  c #B99D53",
"}  c #B1965C",
"|  c #B49B5C",
" . c #B99E5A",
".. c #B08F4C",
"X. c #BCA255",
"o. c #B6A35A",
"O. c #BDA55A",
"+. c #BEA95D",
"@. c #B6A056",
"#. c #B5A055",
"$. c #998777",
"%. c #998C6F",
"&. c #A89664",
"*. c #B29B66",
"=. c #AC9573",
"-. c #AB9272",
";. c #AFA367",
":. c #BCA565",
">. c #B9A868",
",. c #B7A976",
"<. c #B9B574",
"1. c #BBB46B",
"2. c #C1A555",
"3. c #C5A955",
"4. c #C2A65A",
"5. c #C4AB5C",
"6. c #CBAD5C",
"7. c #CBB25C",
"8. c #D7B95C",
"9. c #D8B248",
"0. c #C3AC63",
"q. c #CBAE64",
"w. c #C4AC6A",
"e. c #C3A865",
"r. c #C4B163",
"t. c #CBB463",
"y. c #CFB965",
"u. c #C4B46A",
"i. c #CBB36A",
"p. c #CCBB6B",
"a. c #C4BA6B",
"s. c #D2B463",
"d. c #D3BA65",
"f. c #D3BC6B",
"g. c #D8BD67",
"h. c #C2AD72",
"j. c #C5B273",
"k. c #CEBC7C",
"l. c #C8B876",
"z. c #D2BC72",
"x. c #D4BD79",
"c. c #D0AF60",
"v. c #C59E42",
"b. c #D9C45C",
"n. c #E9C85A",
"m. c #EDCD52",
"M. c #D5C26D",
"N. c #DAC26B",
"B. c #DDCA6D",
"V. c #D9C166",
"C. c #D3C275",
"Z. c #DAC473",
"A. c #DCCB75",
"S. c #D5C47B",
"D. c #DAC47B",
"F. c #DCCB7A",
"G. c #D5CA7A",
"H. c #DDD17B",
"J. c #DED776",
"K. c #CAC375",
"L. c #E3CB69",
"P. c #F3D86B",
"I. c #E2CC74",
"U. c #E3CE7A",
"Y. c #E4D074",
"T. c #EAD475",
"R. c #E4D37B",
"E. c #E9D579",
"W. c #EED97A",
"Q. c #EADA77",
"!. c #F3DD7B",
"~. c #F6DB71",
"^. c #E5D36D",
"/. c #EAE37C",
"(. c #FBE176",
"). c #000083",
"_. c #2D1D81",
"`. c #403885",
"'. c #574E84",
"]. c #78748B",
"[. c #887D80",
"{. c #8C848A",
"}. c #968F8D",
"|. c #A79A88",
" X c #AAA597",
".X c #B8AF8E",
"XX c #B3B4A7",
"oX c #9FA099",
"OX c #C6BA87",
"+X c #D1BE87",
"@X c #C8BF99",
"#X c #C9C689",
"$X c #DCCC85",
"%X c #DBCA89",
"&X c #D6C687",
"*X c #DED484",
"=X c #D9D587",
"-X c #CBC896",
";X c #DACC94",
":X c #DAD396",
">X c #E1CB8B",
",X c #E2D482",
"<X c #E5DA83",
"1X c #EBDB83",
"2X c #EADD8C",
"3X c #E5D68A",
"4X c #E3CF93",
"5X c #E3D494",
"6X c #E3D994",
"7X c #E9DD96",
"8X c #E5D599",
"9X c #E6DA9D",
"0X c #E9DD9D",
"qX c #F2DE8E",
"wX c #ECE38C",
"eX c #EAE687",
"rX c #F1E48A",
"tX c #F6E98A",
"yX c #EAE293",
"uX c #EEEB92",
"iX c #EBE29C",
"pX c #EAE699",
"aX c #F2EB94",
"sX c #F3EE9B",
"dX c #F6E996",
"fX c #F6F09C",
"gX c #C7C7A8",
"hX c #D8D9AE",
"jX c #E9DDA1",
"kX c #E5DDA2",
"lX c #EBE3A4",
"zX c #EEEAA5",
"xX c #EAE4AA",
"cX c #EDEAAD",
"vX c #E7E2A3",
"bX c #F0EEAC",
"nX c #F2EAA3",
"mX c #F6F2AA",
"MX c #FAF6A8",
"NX c #EEEBB3",
"BX c #ECEBB5",
"VX c #F2EEB3",
"CX c #F2F2B4",
"ZX c #F3F2BB",
"AX c #FEFEB3",
"SX c #F9FBC3",
/* pixels */
"                                                                                                                                ",
"                                                                                                                                ",
"                                                                                                                                ",
"                                                      NXVXZXZXZXZXZXZXAXBX                                                      ",
"                                              cXcXzXMXAXMXMXMXmXmXMXMXMXMXMXcXcXcX                                              ",
"                                        cXkXsXiX7X6X6X6X5X5X5X<X5X:X6X5X5X9X6X7XiXsXjXzX                                        ",
"                                    9X5X3X%X%X%X%X&XS.C.C.C.C.l.p.z.z.C.C.S.S.&X%X%X%X3X6X5X                                    ",
"                                :X%XS.x.x.j.i.u.t.r.0.+.O.:.+.+.5.+.+.O.+.0.r.t.t.i.l.k.k.D.%X;X                                ",
"                            :X+Xi.w.j.:.X.5.5.O.X.X.O.+.:.w.>.w.>.>.w.>.:.O.X.X.+.O.+.X.:.w.u.i.x.4X                            ",
"                          &Xq.[ :.| Q X.O.! ..[ | } &.H J J f F f J J H _ _ *.| [ Q [ [ O.E } :.| q.+X                          ",
"                        l.^ } } M ! +.Q M ) ` J J = n n y ! e  .u ! y K M 3 F g H ` ) N ! +.Q M [ } ..j.                        ",
"                      w.L } Y p [ X.M Y ( l F % ! M Q Q P X.p 2.a X.P E ! M  .6 Y 9 l ( Y K E [ p K | L >.                      ",
"                    >.M } x I 4.P p / l - 3  .e X.M Q I M  .7 X.e  .K Y Q p ~ e O.y 3 - l ( K K  .E y } K :.                    ",
"                  >.p } t L O.K F H = 4 w u X.0 #.y E E p  .w X.w ~ M I Y y  .6 #.y y e 4 = H U a O.Q w } x :.                  ",
"                h.p ` w Y [ e U l % 3 t e t ~ 6 [ y I I y Q 6 ~ 6 Q t I I u  .6  .u w e t 8 % l / u ' Y 0 ` y >.                ",
"              l.x ` r P ' w / g $ w w w w w  .3 [ 0 [ E P t.w M.r t.Y Y [ 0 Q 6 ~ w w 0 w w w @ ; / w #.E 0 ` y h.              ",
"            +XY U k K O.w F ; @ 0 0 0 0 0 0 [ < 7.y M.d.X.!.n Q.K Y.4.t.I.t q.3  .0 0 0 0 0 0 0 $ ; / w o.P r / K l.            ",
"            *.h U 8 O.y j ; @ 0 8 8 3 8 3 0  .8 Q.X.t.p._ u.;.K.1.a.;.+.5.[ !.0  .0 3 0 3 8 8 8 0 @ ; J y [ w j k *.            ",
"          OXK ` w [ K F J % r r r e t t 7 I T.E N.:.=.h.j.Z.<XwXuXwXH.;XOX,.h.U E.Q 0 t e t t t w t % f F K [ w Y x h.          ",
"          e.} Y Q [ L _ = K P K K P K I p  .!.` ,.+Xz.7.7.U.yXaXwXyX5X9X8X4X+X,.l.~ p L K K L L P L K 9 &.Y [ E Y *.e.          ",
"        &X4.e.^ 5.Q :.f Y ^ Q [ Q ! Q Q Q X.a.G.R.A.g.q.D.5XcXcXcXcXcX:X5X4X2X8X%X,./ ! Q [ Q Q Q ^ [ I k ,.Q 5.Q e.4.x.        ",
"        x.i.q.5.O.0.&.G 4.4.4.4.4.4.4.5. .<.eXuXeX*Xg.%X%X&XzXCXCXcXcXkX4X4X4XjX7X9X.X| 5.4.4.4.4.4.4.4.I H i.5.O.e.q.x.        ",
"      8XI.D.s.r.7.l./ t.g.s.g.s.d.d.d.7.a.uXuXuXiXyXI.%Xx.4XjXVXCXcXkX8X5X5X6X9XiXzXMX#Xu.g.d.d.g.g.s.d.s.) j.d.q.t.D.I.3X      ",
"      2XU.R.N.t.U.;.O.N.N.g.N.g.N.!.J.1.eXuXuXeXiXzXjX8X4X4XzXVXCXcXjX5X5X5X9XiXzXzXbXcXOXU.Q.N.g.N.M.N.N.+.;.G.d.t.U.U.3X      ",
"      dX1X!.N.B.3X;.B.Q.E.E.E.E.Y.I.+.H.rXeXtXeXcXZXcXvX4X4XjXcXNXzX4X4X5X8XjXzXzXbXbXZXBXOXV.J.E.E.Q.Q.Q.Y.:.*XE.d.E.qXtX      ",
"    nXdXaXQ.p.1Xk.:.E.E.Q.Q.Y.Q.rXN.a.Q././.sXCXzXiXvX9XjX4Xz.D.9XkXs.>X8X7XiXzXcXCXCXvX XoXA./.Q.E.E.R.R.Q.+.<.rXg.U.rXdXfX    ",
"    nXdXaXR.a.uX<.M.<XR.R.R.<XY.A.+.I.Q.Q.Y.zXiX<XeX=X6X4X%X4X7X6XzX%Xx.7XiXnXVXCXCXZX XhXXX}.J.G.Q.R.R.<X1XK.,.aXY.A.aXdXfX    ",
"    MXdXsXA.A.pX;.R.rXaXrXrXrXrXA.5.L.B.L.3XiXiXzXwX<X<XU.%X%X4X9X;X%Xx.9X9XvXcXcXcXSXXX].}.gXJ.tXrXrXrXrXrXeX1.6X<Xp.aXsXfX    ",
"    MXfXfXG.*X6X;.<X*X<X<X*XR.R.+.d.P m A V.7XzXzX6XU.3X*Xd.D S 6 * p A m C D n.!.^.U.{.SXgX XK.U.A.3X<X*X<X<X;.:XuXS.uXnXMX    ",
"    AXmXsXG.sX:XK.MXfXMXfXfXaXwX:.b.P m Z n.T.5XsXzXsX7X,XP.9.S 5 . > B i.z.D.1X<X(.m.%.XXoXgX=X1XaXsXsXMXfXfX=X-XfXS.uXMXAXnX  ",
"  NXAXmXsXl.sX#X1.*X*X*X*X*XR.B.' g.n m Z n.(.g. X}.oXOXn.~.D Z 7 q ) e.:XkXjXjXvXR.m.&XhX-XSX-XN.U.*X3X*X*X=XK..XfXC.=XMXMXVX  ",
"  nXMXfXwXC.uX.X=XuXuXuXuXsXuXH.) d.y m A g.~.b.: ).).*.P.E.3.V z ].[.]..XzX3X<XA.^.m.&XMXwXxX:XA.wXuXuXuXuXuXJ.OXsXG.*XMXMXCX  ",
"  zXfXiX<Xp.<X<.r.H.A.A.A.A.Q.N.[ s.k m Z %X%X7.'.).).=.g.4Xc.V z )._.).[.z.8.L.^.~.B.iXuXuXwX#XA.Q.A.A.A.A.J.a.,.wXM.A.yXfXzX  ",
"  iXaX<XG.r.*X<.u.H.H.H.H.R.G.u.[ g.y m Z %X8X&XOX.X.X+X8X8Xc.V z ).`.).[.Z 9.n.~.~.C.zXuXuXuX#XK.V.H.H.H.J.H.a.,.*Xp.M.=XyXiX  ",
"  8X1X%XM.y.A.,.o.V.M.N.M.M.Q.J.) g.K m A ;X9XzXjXjXxXlXjX8Xq.V z '.'.`.%.B.N.A.J.^.m.K.uXeXuXK.H.Q.M.M.K.M.V.+.;.H.p.y.%X1X7X  ",
"  :XR.C.y.r.y.,.' y.t.y.7.t.7.7.| U.P s A kXcXcXcXBXjXjX8X8Xh.V t H ] h.Z.I.Y.Q.J.L.m.7././.eX#X7.7.7.t.7.7.M.! ;.C.r.7.Z.Y.:X  ",
"    U.i.7.+.7.1.' y.y.y.b.a.B.!.:.J.' m v.<X6XcXcXcXjX4X4XkXx.V 7 . > S 4.6.8.V.B.~.n.9./././.1.E.A.8.y.d.y.K.Q :.t.5.3.g.Z.    ",
"    g.t.3.+.~ :.G R ~ ~ ~ ~ 3.7.' *X;.> C wXuX<XjXjX4X4XjXjXx.V 6 O a B S C 9.n.(.(.m.b././.J.o.7.3.~ ~ ~ ~ ~ G :.3.5.~ u.g.    ",
"    j.4.X.~ ~ #.G ~ 7.3.7.+.X.M.V.G.o.m v.<X1X,XjX4X4XjXjXNXz.C M & a C A A 9.n.~.~.b.^././.M.M.V.2.2.3.3.3.~ F o.~ ~ ~ 4.q.    ",
"    z.~ #.B ~ Q J n ^ B B Q B 7.K.;.=XeX3XR.I.s.+X4XjXjXNXNX4X|.{.,.g.$.c e.e.*.>.%.$.u.^.^.' d.7.Q B Q B ^ M F ! ! Q Q  .i.    ",
"    x.~ [ N Q N J 6 E B E B B N B y.K.eXU.Z.d.c.i.9XcXNXBXVXXX|.+Xw.}.,.` c *.$.-.v q.[.N.r.t.~ N B ^ B B E w J B [ N Q ^ z.    ",
"       ...p ..N Y F P ^ ~ R Q Q 7.^.o.a.N.t.c.s.g.kXBXBXBXVX}.;XqXz.c L.P.c =.-.-.*.8.c 0.O.Y.6.Q ! R R ! P G Y E #.u ) [       ",
"      >.K U N [ M k # 3 5 6 5 5 5 5 7 G 4.s.c.g.S.cXZXZXZXBX@X{. X,.=.}.|.}.j.$.=.-.8.v x 7 5 2 5 5 5 5 7 # f M ! P K K |       ",
"      l.L U 6 [ u F = 4 6 6 6 6 3 7 4 ! | 0.g.Z.G.kXZXZXVXcX7X+X-.c.0X-Xl.E.U.i.i.q.c.z 3 5 5 6 6 6 6 6 5 - J w R 7 U M h.      ",
"        Y k r y E 8 l + 3 d < < 4 2 + 5.Y.h u.R.wX=XBXZXBXxX8X>X8.c.2X3XW.,XU.U.Z.c.F 4 4 2 < < 4 5 4 4 + l q Y U 8 j Y         ",
"        ,.q j , ) w z = # < , , < < # 5.E.G u.l.yXuX9XZXBXjX2Xs.c.c.x.U.U.W.Q.A.e.j $ , , d , , - , , + & k 8 ) , j 0 *.        ",
"          / 8 9 q o.1 z * + $ @ , @ X ) y.h !.F <.:X<X6XxX8Xx.7.c.s.N.U.E.U.z.} Z.I X $ @ $ $ $ $ $ @ o l % #.k 1 z j           ",
"          h.k z $ ) ) 1 l . $ $ $ , + i G 2 U.r J.o.,.l.w.q.t.4.c.q.c.q.>.*.g.q T.k + , $ $ $ $ $ $ . l 9 y [ @ j 3 ,.          ",
"            *.8 j ,  .r 8 z O < < < , r Y $ Q $ E.Q d.g.Y p.G 0.F r.) 0.i.Y !.< Y < < < < < < % < O g z r ) , k q (             ",
"              ` h j 3 [ k k z O < 3 < t ..<  ., X.0 d.t. .!.y 1XK Y.X.5.N.8 X., [ 8 3 3 8 4 8 9 O g F 8 [ t h k /               ",
"              OXU / k x +.p k J * 3 8 y [ <  .< [ 0 Y K k 3.3 5.3 O.K K Y 0 Q 3 [ 0 0 0 8 q 3 + l J y O.y q ` x h.              ",
"                h.K Y k K [ k F H & , G [ 0  .6 [ y P Y y Q 0 [ 0 Q y P Y y [ 0  .t 0 r r 4 & H U t O.P r ` p h.                ",
"                  l.L } K G  .K K _ g q E y X.e  .p E E K  .u X.e  .M I Q y X.e  .p y w 4 g &.K I O.K p } x h.                  ",
"                    l.Y | Y M X.#.P Y &.f 2 [ u 2.M Q Q K X.y X.y  .I Q ! P X.y 2.u 4 g H ` K [ +.M L *...h.                    ",
"                      k.~ | | M [ O.I Q } _ J 9 E n ! ! Q 5.K 5.L 2.E  .X.P ~ i G z H *.E E X. .M [ *.Q j.                      ",
"                        +Xq. .:.Q E X.[ Q [  .&.&.f F G y E u X.n ! M M F i J H }  . .! X.X.I ..:. .6.k.                        ",
"                          ;Xz.4.q.0.~ ~ O.4. .~ +.:.>.&.&._ H _ J _ _ _ ;.:.:.O.O. .X.5.! ! 0.w.4.z.%X                          ",
"                              %Xx.t.j.i.5.2.4.4.+.3.5.7.t.r.t.r.i.t.r.r.6.5.5.5.5.4.X.2.q.p.i.g.&X                              ",
"                                8X%XG.g.z.z.p.t.5.7.5.+.5.5.7.5.7.5.5.7.5.5.5.5.6.s.z.z.C.Z.G.5X                                ",
"                                    7X3X1XU.A.G.A.C.M.g.d.y.d.7.t.y.y.y.d.M.C.A.G.G.R.1X3X5X                                    ",
"                                          7X3XrX1XE.3XR.1X3XR.3XR.1X3XR.<XR.1X1XrX3X2X                                          ",
"                                                sX7XrXrXtXdXtXtXtXtXtXdXaX2X7XsX                                                ",
"                                                          iXiXiXzXiXiX                                                          ",
"                                                                                                                                "
};
