/* XPM */
static char *mb8coin_png[] = {
/* columns rows colors chars-per-pixel */
"31 31 200 2 ",
"   c None",
".  c #764C17",
"X  c #7C531F",
"o  c #714F26",
"O  c #755328",
"+  c #7F5A28",
"@  c #7C5626",
"#  c #7D5E31",
"$  c #4C3E7D",
"%  c #845C23",
"&  c #815A29",
"*  c #86622D",
"=  c #8A6428",
"-  c #916C2F",
";  c #866633",
":  c #886530",
">  c #8B6A34",
",  c #886C3D",
"<  c #916D34",
"1  c #8C703C",
"2  c #977535",
"3  c #9E7B36",
"4  c #997638",
"5  c #9A7A3C",
"6  c #957437",
"7  c #A77A22",
"8  c #A07D35",
"9  c #A17D39",
"0  c #856C40",
"q  c #896F41",
"w  c #8D7243",
"e  c #977641",
"r  c #987640",
"t  c #977C47",
"y  c #9A7D42",
"u  c #8C7E7F",
"i  c #AB8127",
"p  c #B6892A",
"a  c #A4813B",
"s  c #B88F3E",
"d  c #B68C32",
"f  c #9C8144",
"g  c #9E844B",
"h  c #9F8551",
"j  c #A48543",
"k  c #A58946",
"l  c #AA8B45",
"z  c #A2864A",
"x  c #A48A4B",
"c  c #AB8E4A",
"v  c #A98449",
"b  c #B18F4A",
"n  c #AD924D",
"m  c #B39343",
"M  c #BC9442",
"N  c #B2954D",
"B  c #BB9B4C",
"V  c #B5994F",
"C  c #A68C52",
"Z  c #AB8D53",
"A  c #A48A59",
"S  c #A68553",
"D  c #AA9354",
"F  c #B49555",
"G  c #B49A53",
"H  c #BA9D55",
"J  c #B39B5A",
"K  c #BA9D5B",
"L  c #B59759",
"P  c #BFA24E",
"I  c #BDA257",
"U  c #BCA45B",
"Y  c #BFA95D",
"T  c #AD936C",
"R  c #B69C69",
"E  c #B39B72",
"W  c #B7A065",
"Q  c #BCA462",
"!  c #BEA963",
"~  c #BCA46A",
"^  c #B8A478",
"/  c #C1A24E",
"(  c #D2AC4E",
")  c #C3A453",
"_  c #C1A55D",
"`  c #C4AB5D",
"'  c #CAAD5D",
"]  c #C8B15D",
"[  c #D0B252",
"{  c #C2AD63",
"}  c #C9AE65",
"|  c #C3AB6B",
" . c #C5B163",
".. c #CCB462",
"X. c #CEB964",
"o. c #C6B36B",
"O. c #CAB46D",
"+. c #CBBB6D",
"@. c #C6BB6E",
"#. c #D3BC65",
"$. c #D2B76A",
"%. c #D5BD6C",
"&. c #C7B072",
"*. c #CAB474",
"=. c #C9B975",
"-. c #D2BB72",
";. c #D3BA76",
":. c #E6C659",
">. c #D5C16D",
",. c #DBC56C",
"<. c #DBC969",
"1. c #CEC171",
"2. c #D4C474",
"3. c #DAC771",
"4. c #D5CB75",
"5. c #DCC973",
"6. c #DBC47A",
"7. c #D5CC7B",
"8. c #DDCD7C",
"9. c #DAD07C",
"0. c #E7C865",
"q. c #E4C96B",
"w. c #E3C366",
"e. c #E8D165",
"r. c #E2CB72",
"t. c #E0CB79",
"y. c #E1D473",
"u. c #EAD777",
"i. c #E5D47B",
"p. c #E9D579",
"a. c #ECDB7D",
"s. c #EADB72",
"d. c #473B80",
"f. c #9A918D",
"g. c #BBAB83",
"h. c #B8B595",
"j. c #A9AAA4",
"k. c #C0AF8A",
"l. c #C2AF81",
"z. c #C6B781",
"x. c #C0B997",
"c. c #C8BE95",
"v. c #CEC781",
"b. c #D6C683",
"n. c #DBC784",
"m. c #D4CC82",
"M. c #DCCD83",
"N. c #D3C68B",
"B. c #DDC788",
"V. c #DECE8C",
"C. c #DBD183",
"Z. c #D6D28C",
"A. c #DAD489",
"S. c #DFDA85",
"D. c #CAC298",
"F. c #DECF95",
"G. c #DCD39E",
"H. c #DCD698",
"J. c #E0CD86",
"K. c #E3D483",
"L. c #E6DB86",
"P. c #EADB85",
"I. c #E7DE88",
"U. c #ECDD8C",
"Y. c #E1D58B",
"T. c #F2DC82",
"R. c #E2CF92",
"E. c #E3D395",
"W. c #E6DD91",
"Q. c #E5D599",
"!. c #E7DB9C",
"~. c #E9DF9F",
"^. c #EEDD91",
"/. c #ECE38C",
"(. c #E9E388",
"). c #F7E689",
"_. c #F4E286",
"`. c #ECE593",
"'. c #E5E19A",
"]. c #EAE29D",
"[. c #ECEB9C",
"{. c #F1E790",
"}. c #F0E69D",
"|. c #F1EB9D",
" X c #F8EB97",
".X c #C2C4A7",
"XX c #D9D4A6",
"oX c #D0D1A5",
"OX c #E9DDA3",
"+X c #EAE3A3",
"@X c #EDEAAD",
"#X c #EBE6A7",
"$X c #F0E9A4",
"%X c #F6F1A1",
"&X c #F3F2AD",
"*X c #F9F6AA",
"=X c #EEEFB7",
"-X c #F1EFB5",
";X c #F3F4BD",
":X c #F1F2B6",
/* pixels */
"                                                              ",
"                                                              ",
"                    +X].].].$X}.].].].].+X                    ",
"                n.b.M.6.%.O.o.o.o.O.-.6.J.b.M.                ",
"              |  .Y I D D D D D Z D D D G U } | *.            ",
"          ~ K n n g f g z j c k l k k g t k c N K ~           ",
"        ~ F l n t 1 a j l l l l l l l l 5 1 t c l F R         ",
"      ~ Z j k w : - a j b V G G G m l k 2 - ; w k k Z W       ",
"      Z z k 1 * - < j I ! } @.4.+.O.! F 2 < < = w k j C       ",
"    | I F g y l j a Y 4.@.O.Y.[.].R.N.=.n 9 k j f g n H |     ",
"    -. .U J ` ` ' ` 7./.J.6.!.:X@XE.E.Q.N.! ` } ` J ~ ' -.    ",
"  ^._.>.o.%.r.r.5.5.(.[.+XQ.Q.@XOXR.!.$X*XG.<.q.r.%.*.,.T.U.  ",
"   X).8.2.i.a.i.3.y.).+X].Q.Y.!.E.R.$X&X:X.Xz.a.a.p.2.8._. X  ",
"  %X/.m.9././.i. .[ J.$X{.K.6.*.| $.J.}.H.j.h.i.(./.m.M./.$X  ",
"  *X`.Z.A.`./.8.H p :.J.x.J.:.7 : &.M.P.<.D.oXC./.`.S.Z./.*X  ",
"  |.K.v.8.I.L.3.V s w.^ $ z.0.y $ f.M.p.i.`.'.C.K.I.C.m.C.|.  ",
"  L.,.@.@.5.5.>.B m B.G.c.G.n.S $ u #.e.r._.(.4.<.5.1.@.2.L.  ",
"  2.] ~ ` ] X.>. .p K.:X$X!.J.7 < I w.u.e.s.S.>.] X.Y !  .2.  ",
"  } ) N n P / X.@.] 5.Q.E.OXR.v 9 M ( 0.,.y.<.] P P V G ) }   ",
"  { V b j m m B @.9.<.%.Q.=XXXg.E T T T E @.X.P s b j n B U   ",
"  ~ m l f 2 a 3 b U ] %.#X;XXXg.&.g.^ E R A l a 8 2 y l b K   ",
"    z f t # = % % V  .8.#X;X#X;.;.Y.i.%.n & % = % # y f g     ",
"    A e f q o . + j Y @.A.G.B.' %.8.4.} : . + X o 0 f e A     ",
"      h f f , O + < j F `  .` ` U } U k : % % O 0 y y g       ",
"        S j k w ; 5 j y j n V N n n j j 6 : : w k j C         ",
"        | J c c h g j l l l c l l c l l 5 e h n n J ~         ",
"          &.~ I V D Z C Z n c N n n k C C n G H ~ &.          ",
"              O.$.` I I G J J F J J J U I ` $.O.              ",
"                M.6.8.5.,.#.X.X. .#.%.r.r.6.n.                ",
"                      U.P.I.I.I.I.I.I.U.                      ",
"                                                              "
};
