/* XPM */
static char *mb8coin16[] = {
/* columns rows colors chars-per-pixel */
"16 16 174 2 ",
"   c None",
".  c #75450D",
"X  c #734D24",
"o  c #785427",
"O  c #775669",
"+  c #896228",
"@  c #90692D",
"#  c #90692E",
"$  c #826131",
"%  c #866736",
"&  c #8D6E38",
"*  c #8D6F38",
"=  c #8D723D",
"-  c #8E733E",
";  c #937136",
":  c #977639",
">  c #92773F",
",  c #93783F",
"<  c #9A793B",
"1  c #9A7D3D",
"2  c #9B7D3E",
"3  c #A17C32",
"4  c #A27D3C",
"5  c #937941",
"6  c #957940",
"7  c #987757",
"8  c #A48034",
"9  c #A2823E",
"0  c #A8893F",
"q  c #9F8346",
"w  c #A28342",
"e  c #A38746",
"r  c #A58A47",
"t  c #AB8B41",
"y  c #A88A47",
"u  c #AB8D46",
"i  c #AD8E46",
"p  c #A28749",
"a  c #A58748",
"s  c #A0824C",
"d  c #A0834E",
"f  c #A68848",
"g  c #A58A48",
"h  c #A88B48",
"j  c #A98F4B",
"k  c #AA8F4D",
"l  c #AA8C4F",
"z  c #AE924C",
"x  c #AF924D",
"c  c #AF914E",
"v  c #AD924E",
"b  c #B99746",
"n  c #B2924B",
"m  c #B19449",
"M  c #B3944C",
"N  c #B69A4D",
"B  c #B69B4F",
"V  c #BD9C49",
"C  c #B89C4E",
"Z  c #AB8D50",
"A  c #B29752",
"S  c #B49853",
"D  c #B69C52",
"F  c #B69C57",
"G  c #B09659",
"H  c #B29658",
"J  c #B3975E",
"K  c #B79E58",
"L  c #B8A35A",
"P  c #BDA05B",
"I  c #BEA25C",
"U  c #BBA45C",
"Y  c #BCA65E",
"T  c #B59961",
"R  c #B2996C",
"E  c #BDA879",
"W  c #BFAA7D",
"Q  c #C7AB57",
"!  c #C6AA59",
"~  c #C0AA5D",
"^  c #CDAB58",
"/  c #C9AF5B",
"(  c #CAAE5C",
")  c #CAAE5E",
"_  c #CAB05F",
"`  c #D6B75B",
"'  c #C0A664",
"]  c #C0A665",
"[  c #C4AB61",
"{  c #C7AD64",
"}  c #C8AE65",
"|  c #CCB463",
" . c #C9B765",
".. c #CDB569",
"X. c #D1B761",
"o. c #D0B76D",
"O. c #D0BA69",
"+. c #D4BA6B",
"@. c #D7BB6B",
"#. c #D5BC6D",
"$. c #D5BF6D",
"%. c #D5BF6F",
"&. c #C6B170",
"*. c #D5B870",
"=. c #D3BD72",
"-. c #D6BE70",
";. c #D4BD72",
":. c #D1BD74",
">. c #D5C06F",
",. c #DDC86D",
"<. c #DCC96D",
"1. c #D0C170",
"2. c #D1C270",
"3. c #D1C275",
"4. c #DBCF71",
"5. c #D9C875",
"6. c #DBCB75",
"7. c #D9CB79",
"8. c #D9CB7A",
"9. c #DACB7A",
"0. c #DACD7B",
"q. c #DFCD78",
"w. c #DDCE7E",
"e. c #EFDB70",
"r. c #EEDB7A",
"t. c #ECDB7F",
"y. c #C7BD8C",
"u. c #D4BF80",
"i. c #C8BF90",
"p. c #D5CB80",
"a. c #DAC883",
"s. c #D6C58D",
"d. c #DCCB8C",
"f. c #DECD8C",
"g. c #DCD680",
"h. c #DED18B",
"j. c #DFD28C",
"k. c #CBC49D",
"l. c #CCC89B",
"z. c #DBD292",
"x. c #DFDA95",
"c. c #E0CF84",
"v. c #E1D28A",
"b. c #E1D58E",
"n. c #E4D58F",
"m. c #E4D68E",
"M. c #E2DB8B",
"N. c #E2DC8C",
"B. c #E9DF89",
"V. c #E8DF8A",
"C. c #EBDF8F",
"Z. c #EDDF8F",
"A. c #E0D191",
"S. c #EADC95",
"D. c #E7D79A",
"F. c #E8DD9E",
"G. c #E5E089",
"H. c #ECE08C",
"J. c #ECE08D",
"K. c #F3E48B",
"L. c #F4E48B",
"P. c #F1E28D",
"I. c #F1E38D",
"U. c #EDE591",
"Y. c #EBE595",
"T. c #ECE596",
"R. c #DEDAAC",
"E. c #EBE3A7",
"W. c #EFEAAC",
"Q. c #F0E4A4",
"!. c #F0EAA0",
"~. c #FAF7A9",
"^. c #FAF7AA",
"/. c #E8E8B2",
/* pixels */
"                                ",
"          n.j.b.b.h.m.          ",
"      ] } K j r g k F { '       ",
"    G x * < u i t 0 : & x H     ",
"  T c = # x [ 3.p.&.9 @ - c J   ",
"  -.U ) _ g.v.F.W.D.z.| ( Y #.  ",
"  K.7.t.<.U.!.A.f.S./.i.r.0.L.  ",
"^.T.M.V.V @.y.` 7 a.c.l.B.N.Y.~.",
"C.9.1.6.b u.k.*.O :.e.G.5.2.8.Z.",
"o.! N /  .w.Q.s.4 ^ ,.4.Q C ! ..",
"  n 1 3 L X.E.R.W E R v 8 2 M   ",
"  d 6 X + ~ x.d.+.q.e . o , s   ",
"    Z > % w m B D z ; $ 5 l     ",
"      P S p a h y f q A I       ",
"        ;.%.$.O.O.$.>.=.        ",
"            J.P.I.H.            "
};
